<svg id="Capa_1" enable-background="new 0 0 512 512" height="512" viewBox="0 0 512 512" width="512" xmlns="http://www.w3.org/2000/svg"><g><path d="m316.169 371.043h-120.335c-66.264 0-119.982 53.718-119.982 119.982v5.975c0 8.284 6.716 15 15 15h330.299c8.284 0 15-6.716 15-15v-5.975c0-66.265-53.718-119.982-119.982-119.982z" fill="#00cc76"/><path d="m316.169 371.042h-59.83v140.958h164.812c8.284 0 15-6.716 15-15v-5.975c0-66.265-53.718-119.983-119.982-119.983z" fill="#008475"/><path d="m441.817 246.467-371.634-4.46c-17.611 0-31.887-14.276-31.887-31.887 0-17.611 14.276-31.887 31.887-31.887l371.634 4.46c17.611 0 31.887 14.276 31.887 31.887.001 17.611-14.276 31.887-31.887 31.887z" fill="#ffcabf"/><path d="m420.238 164.145c0-90.352-73.041-163.654-163.329-164.143-.499-.003-1.317-.003-1.816 0-90.287.488-163.328 73.79-163.328 164.143v78.383c0 36.695 12.254 70.529 32.895 97.638l263.333-.86c20.248-26.963 32.245-60.471 32.245-96.779z" fill="#fdc"/><path d="m441.817 182.692-185.478-2.226v63.775l185.478 2.226c17.611 0 31.887-14.276 31.887-31.887.001-17.611-14.276-31.888-31.887-31.888z" fill="#ffb3b3"/><path d="m256.909.002c-.162-.001-.362-.001-.57-.002v349.155l123.972-.383c24.861-28.386 39.927-65.557 39.927-106.245v-78.383c0-90.352-73.041-163.654-163.329-164.142z" fill="#ffcabf"/><g><path d="m327.632 232.976c7.846 0 15.363-6.899 15-15-.364-8.127-6.591-15-15-15-7.846 0-15.363 6.899-15 15 .364 8.127 6.59 15 15 15z" fill="#001e49"/></g><g><path d="m184.372 232.976c7.846 0 15.363-6.899 15-15-.364-8.127-6.591-15-15-15-7.846 0-15.363 6.899-15 15 .364 8.127 6.59 15 15 15z" fill="#093968"/></g><path d="m92.052 154.545c19.434 4.105 40.075 6.319 61.471 6.319 61.308 0 116.437-18.147 154.617-47.039 5.372-4.065 12.766-4.077 18.138-.012 24.976 18.902 57.211 33.199 93.68 40.833-4.906-85.934-75.947-154.173-163.049-154.644-.499-.003-1.317-.003-1.816 0-87.066.471-158.084 68.656-163.041 154.543z" fill="#fed843"/><path d="m256.909.002c-.162-.001-.362-.001-.57-.002v142.287c19.417-7.562 36.904-17.189 51.8-28.461 5.372-4.065 12.766-4.077 18.138-.012 24.976 18.902 57.211 33.199 93.68 40.833-4.905-85.935-75.946-154.174-163.048-154.645z" fill="#ffb64c"/><path d="m387.931 339.259-44.22-75.859c-2.688-4.607-7.622-7.44-12.956-7.44-.004 0-.009 0-.014 0l-149.23.134c-5.368.005-10.324 2.878-12.996 7.534l-43.785 76.487c29.599 38.775 76.295 63.845 128.747 63.845h5.05c52.838 0 99.841-25.438 129.404-64.701z" fill="#fed843"/><path d="m330.755 255.96c-.004 0-.009 0-.014 0l-74.741.067v147.933h2.526c52.839 0 99.842-25.438 129.404-64.702l-44.22-75.859c-2.687-4.606-7.621-7.439-12.955-7.439z" fill="#ffb64c"/><path d="m256.002 348.612c-16.206 0-31.875-5.872-44.123-16.536-6.248-5.439-6.903-14.914-1.463-21.162 5.44-6.249 14.915-6.903 21.163-1.463 6.785 5.907 15.458 9.161 24.422 9.161s17.638-3.254 24.423-9.161c6.249-5.442 15.722-4.787 21.163 1.463 5.44 6.248 4.785 15.723-1.463 21.162-12.246 10.664-27.916 16.536-44.122 16.536z" fill="#f66"/><path d="m280.424 309.451c-6.7 5.833-15.241 9.073-24.085 9.154v30c16.086-.081 31.623-5.939 43.785-16.529 6.248-5.439 6.903-14.914 1.463-21.162-5.44-6.25-14.914-6.905-21.163-1.463z" fill="#e62e6b"/></g></svg>